<svg height="500.584pt" viewBox="0 0 500.584 500.584" width="500.584pt" xmlns="http://www.w3.org/2000/svg"><path d="m304 204.585938c6.640625 0 12.640625-2.722657 16.960938-7.042969 4.320312-4.320313 7.039062-10.320313 7.039062-16.957031 0-13.28125-10.71875-24-24-24h-55.601562c4.082031-44.882813 41.679687-80 87.601562-80 48.640625 0 88 39.359374 88 88 0 48.636718-39.359375 88-88 88-14.398438 0-28-3.523438-40-9.683594v-38.316406zm0 0" fill="#ffc729"/><path d="m452.640625 116.265625c8.238281 19.839844 20.71875 36.238281 35.359375 48.320313-14.640625 12.078124-27.121094 28.476562-35.359375 48.316406-8.160156 19.839844-10.960937 40.242187-9.199219 59.121094-18.882812-1.757813-39.28125 1.039062-59.121094 9.199218-19.839843 8.242188-36.242187 20.722656-48.320312 35.363282-10.320312-12.480469-23.921875-23.203126-40-31.28125v-42.402344c12 6.160156 25.601562 9.683594 40 9.683594 48.640625 0 88-39.363282 88-88 0-48.640626-39.359375-88-88-88-45.921875 0-83.519531 35.117187-87.601562 80h-55.839844c10.882812-10.960938 20.242187-24.480469 26.800781-40.320313 8.160156-19.839844 10.960937-40.242187 9.199219-59.203125 18.882812 1.839844 39.28125-.957031 59.121094-9.117188 19.839843-8.242187 36.242187-20.722656 48.320312-35.359374 12.078125 14.636718 28.480469 27.117187 48.320312 35.359374 19.839844 8.160157 40.238282 10.957032 59.199219 9.117188-1.839843 18.960938.960938 39.363281 9.121094 59.203125zm0 0" fill="#ffeaa7"/><path d="m168 436.585938c-10 4-20 8-40 8-40 0-40-16-80-16h-8v-224h256v240h-8c-40 0-40-16-80-16-20 0-30 4-40 8zm0 0" fill="#e6e9ed"/><path d="m168 396.585938h-48c-13.28125 0-25.28125-5.363282-33.921875-14.082032-8.71875-8.640625-14.078125-20.640625-14.078125-33.917968h48c13.28125 0 25.28125 5.359374 33.921875 14.078124 8.71875 8.640626 14.078125 20.640626 14.078125 33.921876zm0 0" fill="#8cc152"/><path d="m216 252.585938h48c0 13.277343-5.359375 25.277343-14.078125 33.917968-8.640625 8.71875-20.640625 14.082032-33.921875 14.082032h-48c0-13.28125 5.359375-25.28125 14.078125-33.921876 8.640625-8.71875 20.640625-14.078124 33.921875-14.078124zm0 0" fill="#8cc152"/><path d="m216 348.585938h48c0 13.277343-5.359375 25.277343-14.078125 33.917968-8.640625 8.71875-20.640625 14.082032-33.921875 14.082032h-48c0-13.28125 5.359375-25.28125 14.078125-33.921876 8.640625-8.71875 20.640625-14.078124 33.921875-14.078124zm0 0" fill="#b4dd7f"/><path d="m153.921875 266.664062c8.71875 8.640626 14.078125 20.640626 14.078125 33.921876h-48c-13.28125 0-25.28125-5.363282-33.921875-14.082032-8.71875-8.640625-14.078125-20.640625-14.078125-33.917968h48c13.28125 0 25.28125 5.359374 33.921875 14.078124zm0 0" fill="#b4dd7f"/><path d="m288 444.585938h8c0 26.476562-21.519531 48-48 48h-160c-26.480469 0-48-21.523438-48-48v-16h8c40 0 40 16 80 16 20 0 30-4 40-8s20-8 40-8c40 0 40 16 80 16zm0 0" fill="#fcd770"/><path d="m304 156.585938c13.28125 0 24 10.71875 24 24 0 6.636718-2.71875 12.636718-7.039062 16.957031-4.320313 4.320312-10.320313 7.042969-16.960938 7.042969h-272c-13.28125 0-24-10.722657-24-24 0-6.640626 2.71875-12.640626 7.039062-16.960938 4.320313-4.320312 10.320313-7.039062 16.960938-7.039062zm0 0" fill="#969faa"/><g fill="#1e1713"><path d="m384 164.585938h16c0-35.289063-28.710938-64-64-64v16c26.472656 0 48 21.527343 48 48zm0 0"/><path d="m493.089844 158.40625c-14.195313-11.679688-25.617188-27.316406-33.027344-45.214844-7.40625-17.894531-10.390625-37.023437-8.613281-55.320312l.941406-9.671875-9.679687.945312c-18.3125 1.765625-37.429688-1.207031-55.328126-8.617187-17.894531-7.414063-33.527343-18.832032-45.207031-33.023438l-6.175781-7.503906-6.175781 7.503906c-11.679688 14.191406-27.320313 25.617188-45.207031 33.023438-17.890626 7.410156-37.023438 10.394531-55.320313 8.617187l-9.671875-.945312.941406 9.671875c1.777344 18.296875-1.207031 37.425781-8.613281 55.320312-5.488281 13.242188-13.257813 25.089844-22.929687 35.394532h-157.023438c-17.648438 0-32 14.351562-32 32 0 17.644531 14.351562 32 32 32v232c0 30.871093 25.121094 56 56 56h160c30.878906 0 56-25.128907 56-56v-145.488282c10 6.414063 18.816406 14.054688 25.824219 22.566406l6.175781 7.503907 6.175781-7.503907c11.6875-14.191406 27.320313-25.617187 45.214844-33.023437 17.890625-7.417969 37.007813-10.375 55.320313-8.625l9.671874.9375-.941406-9.671875c-1.777344-18.289062 1.207032-37.417969 8.613282-55.320312 7.417968-17.898438 18.832031-33.527344 33.023437-45.207032l7.507813-6.167968zm-477.089844 22.179688c0-8.824219 7.175781-16 16-16h272c8.824219 0 16 7.175781 16 16 0 8.820312-7.175781 16-16 16h-272c-8.824219 0-16-7.179688-16-16zm288 32c17.648438 0 32-14.355469 32-32 0-17.648438-14.351562-32-32-32h-46.328125c7.417969-37.035157 39.65625-64 78.328125-64 44.113281 0 80 35.886718 80 80 0 44.109374-35.886719 80-80 80-11.121094 0-21.839844-2.402344-32-6.882813zm-16 0v224c-18.464844 0-27.488281-3.609376-37.03125-7.433594-10.542969-4.207032-21.441406-8.566406-42.984375-8.566406-14.410156 0-24.015625 1.964843-31.984375 4.519531v-20.519531h40c30.878906 0 56-25.128907 56-56v-8h-56c-15.664062 0-29.824219 6.476562-40 16.886718v-48.886718h40c30.878906 0 56-25.128907 56-56v-8h-56c-20.382812 0-38.199219 10.980468-48 27.300781-9.800781-16.320313-27.617188-27.300781-48-27.300781h-56v8c0 30.871093 25.121094 56 56 56h40v48.886718c-10.175781-10.410156-24.335938-16.886718-40-16.886718h-56v8c0 30.871093 25.121094 56 56 56h40v26.519531c-7.992188 3.007812-16.785156 5.480469-32.03125 5.480469-18.457031 0-27.472656-3.609376-37.007812-7.433594-10.535157-4.207032-21.433594-8.566406-42.960938-8.566406v-208zm-111.191406 176c3.710937-18.234376 19.878906-32 39.191406-32h39.191406c-3.710937 18.230468-19.878906 32-39.191406 32zm0-96c3.710937-18.234376 19.878906-32 39.191406-32h39.191406c-3.710937 18.230468-19.878906 32-39.191406 32zm-17.617188 0h-39.191406c-19.320312 0-35.480469-13.769532-39.191406-32h39.191406c19.320312 0 35.480469 13.765624 39.191406 32zm0 96h-39.191406c-19.320312 0-35.480469-13.769532-39.191406-32h39.191406c19.320312 0 35.480469 13.765624 39.191406 32zm88.808594 96h-160c-22.054688 0-40-17.945313-40-40v-8c18.449219 0 27.464844 3.605468 37.007812 7.429687 10.527344 4.207031 21.425782 8.570313 42.960938 8.570313 21.542969 0 32.4375-4.363282 42.976562-8.570313 9.550782-3.824219 18.566407-7.429687 37.039063-7.429687s27.488281 3.605468 37.039063 7.429687c10.390624 4.152344 21.191406 8.441406 42.167968 8.550781-3.710937 18.242188-19.871094 32.019532-39.191406 32.019532zm197.28125-274.738282c-7.167969 17.320313-10.679688 35.710938-10.304688 53.703125-18.007812-.292969-36.390624 3.144531-53.703124 10.3125-17.328126 7.167969-32.824219 17.695313-45.289063 30.703125-9.007813-9.292968-19.921875-17.390625-31.984375-23.972656v-25.601562c10.265625 3.671874 20.96875 5.59375 32 5.59375 52.9375 0 96-43.066407 96-96 0-52.9375-43.0625-96-96-96-47.511719 0-86.902344 33.917968-94.558594 80h-31.585937c6.761719-8.96875 12.488281-18.707032 16.863281-29.265626 7.167969-17.320312 10.679688-35.710937 10.304688-53.703124 18.066406.472656 36.390624-3.128907 53.710937-10.304688s32.800781-17.695312 45.265625-30.6875c12.464844 13 27.945312 23.511719 45.265625 30.6875 17.320313 7.167969 35.71875 10.609375 53.703125 10.304688-.375 18 3.136719 36.382812 10.304688 53.703124 7.175781 17.320313 17.695312 32.808594 30.6875 45.265626-12.984376 12.460937-23.503907 27.941406-30.679688 45.261718zm0 0"/></g></svg>