<svg height="496pt" viewBox="0 0 496 496" width="496pt" xmlns="http://www.w3.org/2000/svg" xmlns:xlink="http://www.w3.org/1999/xlink"><linearGradient id="a" gradientUnits="userSpaceOnUse" x1="248.0016" x2="248.0016" y1="495.996" y2="0"><stop offset="0" stop-color="#9f2fff"/><stop offset="1" stop-color="#0bb1d3"/></linearGradient><path d="m216 367.992188c48.519531 0 88-39.480469 88-88 0-48.519532-39.480469-88-88-88s-88 39.480468-88 88c0 48.519531 39.488281 88 88 88zm72-87.992188c0 6.65625-.976562 13.070312-2.679688 19.191406-18.753906-5.269531-35.761718-14.679687-49.976562-27.222656l36.847656-36.847656c9.871094 12.3125 15.808594 27.902344 15.808594 44.878906zm-72-72c16.976562 0 32.558594 5.9375 44.886719 15.800781l-36.847657 36.847657c-12.542968-14.207032-21.960937-31.222657-27.222656-49.976563 6.121094-1.695313 12.535156-2.671875 19.183594-2.671875zm-34.160156 8.640625c13.761718 46.816406 50.703125 83.757813 97.519531 97.519531-12.183594 22.503906-36.007813 37.832032-63.351563 37.832032-39.695312 0-72-32.296876-72-72 0-27.335938 15.328126-51.160157 37.832032-63.351563zm-133.839844 279.359375h3.3125l90.191406-90.191406-8-8 17.238282-17.242188c18.808593 12.242188 41.195312 19.433594 65.257812 19.433594 52.296875 0 96.769531-33.6875 113.167969-80.457031 74.824219-4.800781 134.832031-67.933594 134.832031-143.542969v-8h-136v-136h-8c-75.609375 0-138.742188 60.007812-143.535156 134.832031-46.769532 16.390625-80.457032 60.863281-80.457032 113.167969 0 24.0625 7.183594 46.449219 19.433594 65.257812l-17.242187 17.238282-8-8-90.199219 90.183594v3.320312c0 26.464844 21.535156 48 48 48zm275.3125-312h124.429688c-3.910157 61.769531-52.757813 112.550781-114.039063 119.191406 1.480469-7.511718 2.296875-15.253906 2.296875-23.191406 0-30.207031-11.304688-57.769531-29.800781-78.886719zm-11.3125-135.742188v124.429688l-17.113281 17.113281c-21.109375-18.496093-48.671875-29.800781-78.886719-29.800781-7.9375 0-15.6875.816406-23.199219 2.296875 6.648438-61.289063 57.429688-110.128906 119.199219-114.039063zm-199.992188 231.742188c0-57.34375 46.65625-104 104-104s104 46.65625 104 104-46.65625 104-104 104-104-46.664062-104-104zm13.144532 78.160156c3.910156 4.535156 8.152344 8.777344 12.6875 12.6875l-15.640625 15.640625-12.6875-12.6875zm-34.953125 18.953125 28.6875 28.6875-14.886719 14.878907-28.679688-28.679688zm-26.191407 26.199219 28.6875 28.6875-47.855468 47.839844c-15.128906-1.488282-27.191406-13.558594-28.679688-28.679688zm-32.007812 52.6875c0-4.414062 3.585938-8 8-8s8 3.585938 8 8-3.585938 8-8 8-8-3.585938-8-8zm264-344h-56v-16h56zm0 32h-56v-16h56zm112 72h-56v-16h56zm0 32h-56v-16h56zm88-104c0-79.398438-64.601562-144-144-144h-8v152h152zm-136-127.753906c14.945312.929687 29.152344 4.523437 42.28125 10.160156l-42.28125 42.28125zm0 75.066406 57.289062-57.289062c6.871094 4.097656 13.3125 8.832031 19.269532 14.105468l-76.558594 76.558594zm11.3125 44.6875 76.558594-76.558594c5.273437 5.964844 10 12.398438 14.105468 19.269532l-57.289062 57.289062zm56 0 42.28125-42.28125c5.636719 13.128906 9.230469 27.34375 10.160156 42.28125zm-267.3125 144h16c0 22.054688 17.945312 40 40 40v16c-30.878906 0-56-25.121094-56-56zm0 0" fill="url(#a)"/></svg>